<mxfile host="app.diagrams.net" agent="Mozilla/5.0 (Windows NT 10.0; Win64; x64; rv:129.0) Gecko/20100101 Firefox/129.0" version="24.7.12">
  <diagram name="Page-1" id="jlt8fodOVv4K1a1jERJl">
    <mxGraphModel dx="1037" dy="625" grid="1" gridSize="10" guides="1" tooltips="1" connect="1" arrows="1" fold="1" page="1" pageScale="1" pageWidth="827" pageHeight="1169" math="0" shadow="0">
      <root>
        <mxCell id="0" />
        <mxCell id="1" parent="0" />
        <mxCell id="Hi3eLZHkq1opFxPA8Br6-1" value="" style="rounded=0;whiteSpace=wrap;html=1;fillColor=#d5e8d4;strokeColor=#82b366;" vertex="1" parent="1">
          <mxGeometry x="190" y="30" width="440" height="580" as="geometry" />
        </mxCell>
        <mxCell id="Hi3eLZHkq1opFxPA8Br6-2" value="Quai antique" style="text;strokeColor=none;fillColor=none;html=1;fontSize=24;fontStyle=1;verticalAlign=middle;align=center;" vertex="1" parent="1">
          <mxGeometry x="440" y="40" width="160" height="40" as="geometry" />
        </mxCell>
        <mxCell id="Hi3eLZHkq1opFxPA8Br6-3" value="&lt;font style=&quot;font-size: 20px;&quot;&gt;cas d&#39;utilisation&lt;/font&gt;" style="ellipse;whiteSpace=wrap;html=1;" vertex="1" parent="1">
          <mxGeometry x="210" y="80" width="170" height="80" as="geometry" />
        </mxCell>
        <mxCell id="Hi3eLZHkq1opFxPA8Br6-4" value="&lt;font style=&quot;font-size: 15px;&quot;&gt;Client &lt;/font&gt;" style="shape=umlActor;verticalLabelPosition=bottom;verticalAlign=top;html=1;outlineConnect=0;strokeWidth=3;" vertex="1" parent="1">
          <mxGeometry x="90" y="340" width="30" height="60" as="geometry" />
        </mxCell>
        <mxCell id="Hi3eLZHkq1opFxPA8Br6-5" value="&lt;font style=&quot;font-size: 15px;&quot;&gt;Administrateur&lt;/font&gt;" style="shape=umlActor;verticalLabelPosition=bottom;verticalAlign=top;html=1;outlineConnect=0;strokeWidth=3;" vertex="1" parent="1">
          <mxGeometry x="100" y="100" width="30" height="60" as="geometry" />
        </mxCell>
        <mxCell id="Hi3eLZHkq1opFxPA8Br6-6" value="&lt;font style=&quot;font-size: 16px;&quot;&gt;Visiteur&lt;/font&gt;" style="shape=umlActor;verticalLabelPosition=bottom;verticalAlign=top;html=1;outlineConnect=0;strokeWidth=3;" vertex="1" parent="1">
          <mxGeometry x="90" y="495" width="30" height="60" as="geometry" />
        </mxCell>
      </root>
    </mxGraphModel>
  </diagram>
</mxfile>
